<svg xmlns="http://www.w3.org/2000/svg" viewBox="0 0 64 64" role="img" aria-label="Lung AI">
  <defs>
    <linearGradient id="g" x1="0" y1="0" x2="1" y2="1">
      <stop offset="0%" stop-color="#0ea5e9"/>
      <stop offset="100%" stop-color="#0284c7"/>
    </linearGradient>
  </defs>
  <rect x="0" y="0" width="64" height="64" rx="12" fill="url(#g)"/>
  <path d="M24 18c-5 0-9 4-9 9v10c0 6 5 11 11 11 3 0 5-1 7-3V24c-2-4-5-6-9-6zm16 0c5 0 9 4 9 9v10c0 6-5 11-11 11-3 0-5-1-7-3V24c2-4 5-6 9-6z" fill="#ffffff"/>
  <circle cx="32" cy="40" r="3" fill="#fef08a"/>
</svg>
